<mxfile host="app.diagrams.net" modified="2024-02-23T09:51:49.912Z" agent="Mozilla/5.0 (Windows NT 10.0; Win64; x64) AppleWebKit/537.36 (KHTML, like Gecko) Chrome/122.0.0.0 Safari/537.36" etag="0CdJYzVImRoDR5TtsMFB" version="23.1.6" type="github">
  <diagram name="第 1 页" id="AvFFjrc5dVP8ZAouIVWZ">
    <mxGraphModel dx="1434" dy="746" grid="1" gridSize="10" guides="1" tooltips="1" connect="1" arrows="1" fold="1" page="1" pageScale="1" pageWidth="827" pageHeight="1169" math="0" shadow="0">
      <root>
        <mxCell id="0" />
        <mxCell id="1" parent="0" />
        <mxCell id="kXjQfWgRXBoQk7fs5HPP-1" value="&lt;font style=&quot;font-size: 16px;&quot;&gt;答题前检查&lt;/font&gt;" style="rounded=1;whiteSpace=wrap;html=1;arcSize=22;fillColor=#dae8fc;strokeColor=#6c8ebf;" vertex="1" parent="1">
          <mxGeometry x="250" y="113" width="90" height="70" as="geometry" />
        </mxCell>
        <mxCell id="kXjQfWgRXBoQk7fs5HPP-8" value="&lt;font style=&quot;font-size: 14px;&quot;&gt;显示模式&lt;/font&gt;" style="rounded=0;whiteSpace=wrap;html=1;" vertex="1" parent="1">
          <mxGeometry x="265" y="33" width="75" height="30" as="geometry" />
        </mxCell>
        <mxCell id="kXjQfWgRXBoQk7fs5HPP-9" value="&lt;font style=&quot;font-size: 14px;&quot;&gt;缩放等级&lt;/font&gt;" style="rounded=0;whiteSpace=wrap;html=1;" vertex="1" parent="1">
          <mxGeometry x="180" y="33" width="75" height="30" as="geometry" />
        </mxCell>
        <mxCell id="kXjQfWgRXBoQk7fs5HPP-10" value="" style="shape=image;html=1;verticalLabelPosition=bottom;verticalAlign=top;imageAspect=0;image=img/clipart/Gear_128x128.png" vertex="1" parent="1">
          <mxGeometry x="375" y="33" width="30" height="30" as="geometry" />
        </mxCell>
        <mxCell id="kXjQfWgRXBoQk7fs5HPP-11" value="&lt;font color=&quot;#7ea6e0&quot; style=&quot;font-size: 17px;&quot;&gt;文件夹1&lt;/font&gt;" style="rounded=0;whiteSpace=wrap;html=1;align=left;strokeColor=#3399FF;" vertex="1" parent="1">
          <mxGeometry x="640" y="33" width="72.5" height="30" as="geometry" />
        </mxCell>
        <mxCell id="kXjQfWgRXBoQk7fs5HPP-12" value="&lt;font color=&quot;#7ea6e0&quot; style=&quot;font-size: 17px;&quot;&gt;文件夹2&lt;/font&gt;" style="rounded=0;whiteSpace=wrap;html=1;align=left;strokeColor=#3399FF;" vertex="1" parent="1">
          <mxGeometry x="640" y="73" width="72.5" height="30" as="geometry" />
        </mxCell>
        <mxCell id="kXjQfWgRXBoQk7fs5HPP-13" value="&lt;font color=&quot;#7ea6e0&quot; style=&quot;font-size: 17px;&quot;&gt;文件夹3&lt;/font&gt;" style="rounded=0;whiteSpace=wrap;html=1;align=left;strokeColor=#3399FF;" vertex="1" parent="1">
          <mxGeometry x="640" y="113" width="72.5" height="30" as="geometry" />
        </mxCell>
        <mxCell id="kXjQfWgRXBoQk7fs5HPP-14" value="&lt;font color=&quot;#ff0000&quot;&gt;&lt;span style=&quot;font-size: 16px;&quot;&gt;点击后&lt;br&gt;弹框展示文件夹详情&lt;/span&gt;&lt;/font&gt;" style="shape=callout;whiteSpace=wrap;html=1;perimeter=calloutPerimeter;position2=0.18;size=20;position=0.18;strokeColor=#FF0000;" vertex="1" parent="1">
          <mxGeometry x="420" y="63" width="170" height="70" as="geometry" />
        </mxCell>
      </root>
    </mxGraphModel>
  </diagram>
</mxfile>
